STARTFONT 2.1
FONT fg-40
COMMENT
COMMENT GENERATED BY "../snftobdf 1.0"
COMMENT AUTHOR mleisher@nmsu.edu (Mark Leisher)
COMMENT DATE Wed Dec 19 17:00:10 1990
COMMENT
SIZE 25 75 75
FONTBOUNDINGBOX 25 40 0 -7
STARTPROPERTIES 10
COPYRIGHT "Public domain font.  Share and enjoy."
FAMILY_NAME "fg-40.bdf"
POINT_SIZE 380
WEIGHT 184
RESOLUTION 103
X_HEIGHT 33
QUAD_WIDTH 25
DEFAULT_CHAR 0
FONT_ASCENT 33
FONT_DESCENT 7
ENDPROPERTIES
CHARS 127
STARTCHAR C001
ENCODING 1
SWIDTH 963 0
DWIDTH 25 0
BBX 25 40 0 -7
BITMAP
00e00000
00e00000
00e00000
00e00000
00e00000
00e00000
00e00000
00e00000
00e00000
00e00000
00e00000
00e00000
00e00000
00e00000
00e00000
00e00000
00e00000
c0e06000
e0e0e000
f0e1e000
f0e1e000
78e3c000
78e3c000
3ce78000
1ce70000
0ffe0000
0ffe0000
07fc0000
07fc0000
03f80000
01f00000
00e00000
00000000
00000000
00000000
00000000
00000000
00000000
00000000
00000000
ENDCHAR
STARTCHAR C002
ENCODING 2
SWIDTH 963 0
DWIDTH 25 0
BBX 25 40 0 -7
BITMAP
00000000
00000000
00000000
00000000
00000000
00000000
00000000
00000000
00000000
00000000
00003800
00007800
0fe07000
1fe07000
3ff8e000
703de000
601fe000
e00fc000
e00f8000
e0078000
e0078000
e0078000
e0078000
e0078000
e00f8000
e00f8000
e00fc000
601fc000
7039c000
3ff0f800
1fe03800
0fc00800
00000000
00000000
00000000
00000000
00000000
00000000
00000000
00000000
ENDCHAR
STARTCHAR C003
ENCODING 3
SWIDTH 963 0
DWIDTH 25 0
BBX 25 40 0 -7
BITMAP
000f8000
003fc000
007fe000
00fff000
01fff000
03e0f000
07c07000
0f807000
0f007000
1e00e000
1c00e000
1c01e000
3801c000
30038000
70070000
700f0000
701f0000
700fc000
7007e000
f001f000
f000f800
f0007800
f0007800
f0007800
f0007800
f0007800
f0007800
fe00f800
fffff000
ffffe000
e3ffc000
e0000000
e0000000
e0000000
e0000000
e0000000
e0000000
e0000000
e0000000
e0000000
ENDCHAR
STARTCHAR C004
ENCODING 4
SWIDTH 963 0
DWIDTH 25 0
BBX 25 40 0 -7
BITMAP
00000000
00000000
00000000
00000000
00000000
00000000
00000000
00000000
00000000
00000000
00000000
00000000
00700000
00f80000
01fc0000
038e0000
038e0000
078f0000
07070000
0e038000
0e038000
1c01c000
1c01c000
3800e000
3800e000
70007000
70007000
e0003800
e0003800
c0001800
c0001800
80000800
00000000
00000000
00000000
00000000
00000000
00000000
00000000
00000000
ENDCHAR
STARTCHAR C005
ENCODING 5
SWIDTH 963 0
DWIDTH 25 0
BBX 25 40 0 -7
BITMAP
00000000
00000000
00000000
00000000
00000000
00000000
00000000
00000000
00000000
00000000
00000000
00000000
00000000
00000000
00000000
00000000
fffffe00
fffffe00
fffffe00
00000e00
00000e00
00000e00
00000e00
00000e00
00000e00
00000e00
00000000
00000000
00000000
00000000
00000000
00000000
00000000
00000000
00000000
00000000
00000000
00000000
00000000
00000000
ENDCHAR
STARTCHAR C006
ENCODING 6
SWIDTH 963 0
DWIDTH 25 0
BBX 25 40 0 -7
BITMAP
00000000
00000000
00000000
00000000
00000000
00000000
00000000
00000000
00000000
00000000
00000000
00000000
03fc0000
0fe00000
3f800000
3c000000
78000000
70000000
e0000000
e0000000
e0000000
ffe00000
ffe00000
e0000000
e0000000
e0000000
70000000
78000000
3c000000
3f800000
0fc00000
03fc0000
00000000
00000000
00000000
00000000
00000000
00000000
00000000
00000000
ENDCHAR
STARTCHAR C007
ENCODING 7
SWIDTH 963 0
DWIDTH 25 0
BBX 25 40 0 -7
BITMAP
00000000
00000000
00000000
00000000
00000000
00000000
00000000
00000000
00000000
00000000
00000000
00000e00
1ffffe00
fffffe00
f1c7f000
e1c3e000
c1c3c000
01c3c000
01c1c000
0381c000
0781c000
0701c000
0701c000
0701c000
0700e000
0e00e000
0e00f000
0e007000
0e007000
0e003800
0e003800
0e003800
00000000
00000000
00000000
00000000
00000000
00000000
00000000
00000000
ENDCHAR
STARTCHAR C010
ENCODING 8
SWIDTH 963 0
DWIDTH 25 0
BBX 25 40 0 -7
BITMAP
00000000
00000000
00000000
00000000
7f000000
ff800000
ffc00000
83c00000
81e00000
00e00000
00700000
00700000
00380000
00380000
003c0000
003c0000
003c0000
003e0000
007e0000
00fe0000
01ff0000
03ef0000
07c70000
0f838000
1f038000
3e01c000
7c01c000
7800e000
7000e000
e0007000
e0007800
e0007800
00000000
00000000
00000000
00000000
00000000
00000000
00000000
00000000
ENDCHAR
STARTCHAR C011
ENCODING 9
SWIDTH 963 0
DWIDTH 25 0
BBX 25 40 0 -7
BITMAP
00000000
00000000
00000000
00000000
00000000
00000800
e0001800
f0007800
f8007800
7c00f000
3e03e000
1f03c000
0f8f8000
07cf0000
03fe0000
01fc0000
00fc0000
00fc0000
00fc0000
00fc0000
00fc0000
00fc0000
00fc0000
00dc0000
00dc0000
00dc0000
005c0000
007c0000
007c0000
00380000
00000000
00000000
00000000
00000000
00000000
00000000
00000000
00000000
00000000
00000000
ENDCHAR
STARTCHAR C012
ENCODING 10
SWIDTH 963 0
DWIDTH 25 0
BBX 25 40 0 -7
BITMAP
00000000
00000000
00000000
00000000
00000000
03fe0000
0fffc000
3fffc000
7fffc000
7801c000
70004000
78000000
7c000000
3f800000
03c00000
03f00000
03fe0000
03ff0000
3fff8000
7fffc000
f803c000
c001c000
c001c000
c001c000
c001c000
e001c000
f003c000
fc078000
7fff8000
7fff8000
0ffc0000
0ff80000
00000000
00000000
00000000
00000000
00000000
00000000
00000000
00000000
ENDCHAR
STARTCHAR C013
ENCODING 11
SWIDTH 963 0
DWIDTH 25 0
BBX 25 40 0 -7
BITMAP
00e00000
01f00000
03f80000
07fc0000
07fc0000
0ffe0000
0ffe0000
1ce70000
3ce78000
78e3c000
78e3c000
f8e3e000
f0e1e000
e0e0e000
c0e06000
00e00000
00e00000
00e00000
00e00000
00e00000
00e00000
00e00000
00e00000
00e00000
00e00000
00e00000
00e00000
00e00000
00e00000
00e00000
00e00000
00e00000
00000000
00000000
00000000
00000000
00000000
00000000
00000000
00000000
ENDCHAR
STARTCHAR C014
ENCODING 12
SWIDTH 963 0
DWIDTH 25 0
BBX 25 40 0 -7
BITMAP
00000000
00000000
00380000
00380000
00380000
00380000
00380000
00380000
00380000
00380000
00380000
fffffe00
fffffe00
fffffe00
00380000
00380000
00380000
00380000
00380000
00380000
00380000
00380000
00380000
00380000
00000000
00000000
00000000
fffffe00
fffffe00
fffffe00
00000000
00000000
00000000
00000000
00000000
00000000
00000000
00000000
00000000
00000000
ENDCHAR
STARTCHAR C015
ENCODING 13
SWIDTH 963 0
DWIDTH 25 0
BBX 25 40 0 -7
BITMAP
00000000
00000000
00000000
00000000
00000000
00000000
00000000
00000000
01fc0000
07ff0000
0fff8000
1c71c000
3870e000
70707000
60703000
e0701800
e0701800
fffff800
fffff800
fffff800
fffff800
e0701800
e0701800
60703000
70707000
3870e000
1c71c000
0fff8000
07ff0000
01fc0000
00000000
00000000
00000000
00000000
00000000
00000000
00000000
00000000
00000000
00000000
ENDCHAR
STARTCHAR C016
ENCODING 14
SWIDTH 963 0
DWIDTH 25 0
BBX 25 40 0 -7
BITMAP
00000000
00000000
00000000
00000000
00000000
00000000
00000000
00000000
00000000
00000000
00000000
00000000
00000000
00000000
00000000
3f07e000
7f8ff000
e1fc1800
e0f81800
e0f81800
e0f81800
e0f81800
e0f81800
e0f81800
e0f81800
fffff800
7f8ff000
3f07e000
00000000
00000000
00000000
00000000
00000000
00000000
00000000
00000000
00000000
00000000
00000000
00000000
ENDCHAR
STARTCHAR C017
ENCODING 15
SWIDTH 963 0
DWIDTH 25 0
BBX 25 40 0 -7
BITMAP
01f00000
07fc0000
07ff0000
07ff8000
0701c000
0000e000
0000e000
0000e000
0000e000
0000e000
0000e000
0000e000
0000e000
0000e000
0000e000
0ff8e000
1fffe000
3fffe000
7803e000
f001e000
f001e000
f001e000
f001e000
f001e000
f001e000
f001c000
f0038000
700f0000
3ffe0000
3ffc0000
0ff80000
07f00000
00000000
00000000
00000000
00000000
00000000
00000000
00000000
00000000
ENDCHAR
STARTCHAR C020
ENCODING 16
SWIDTH 963 0
DWIDTH 25 0
BBX 25 40 0 -7
BITMAP
00000000
00000000
00000000
00000000
00000000
00000000
00000000
00000000
00000000
00000000
00000000
01fff800
03fff800
0ffff800
1e000000
3e000000
7c000000
f8000000
f0000000
e0000000
e0000000
e0000000
e0000000
e0000000
f0000000
f8000000
7c000000
3e000000
1e000000
0ffff800
03fff800
01fff800
00000000
00000000
00000000
00000000
00000000
00000000
00000000
00000000
ENDCHAR
STARTCHAR C021
ENCODING 17
SWIDTH 963 0
DWIDTH 25 0
BBX 25 40 0 -7
BITMAP
00000000
00000000
00000000
00000000
00000000
00000000
00000000
00000000
00000000
00000000
00000000
fffc0000
fffe0000
ffff8000
0003c000
0003e000
0001f000
0000f800
00007800
00003800
00003800
00003800
00003800
00003800
00007800
0000f800
0001f000
0003e000
0003c000
ffff8000
fffe0000
fffc0000
00000000
00000000
00000000
00000000
00000000
00000000
00000000
00000000
ENDCHAR
STARTCHAR C022
ENCODING 18
SWIDTH 963 0
DWIDTH 25 0
BBX 25 40 0 -7
BITMAP
00000000
00000000
00000000
00000000
00000000
01e00000
0ffc0000
1ffe0000
3e1f0000
7c0f8000
f807c000
e001c000
e001c000
e001c000
e001c000
e001c000
e001c000
e001c000
e001c000
e001c000
e001c000
e001c000
e001c000
e001c000
e001c000
e001c000
e001c000
e001c000
e001c000
e001c000
e001c000
e001c000
00000000
00000000
00000000
00000000
00000000
00000000
00000000
00000000
ENDCHAR
STARTCHAR C023
ENCODING 19
SWIDTH 963 0
DWIDTH 25 0
BBX 25 40 0 -7
BITMAP
00000000
00000000
00000000
00000000
00000000
e001c000
e001c000
e001c000
e001c000
e001c000
e001c000
e001c000
e001c000
e001c000
e001c000
e001c000
e001c000
e001c000
e001c000
e001c000
e001c000
e001c000
e001c000
e001c000
e001c000
e001c000
f807c000
7c0f8000
3e1f0000
1ffe0000
0ffc0000
01e00000
00000000
00000000
00000000
00000000
00000000
00000000
00000000
00000000
ENDCHAR
STARTCHAR C024
ENCODING 20
SWIDTH 963 0
DWIDTH 25 0
BBX 25 40 0 -7
BITMAP
f0000e00
f0000e00
f0000e00
70001c00
38003800
38003800
38003800
38003800
1e00f000
1e00f000
1e00f000
0ffff000
0fffe000
07ffc000
0701c000
0701c000
0701c000
03838000
03c78000
01c70000
01c70000
01c70000
00fe0000
00fe0000
00fe0000
00fe0000
007c0000
00380000
00380000
00380000
00380000
00380000
00000000
00000000
00000000
00000000
00000000
00000000
00000000
00000000
ENDCHAR
STARTCHAR C025
ENCODING 21
SWIDTH 963 0
DWIDTH 25 0
BBX 25 40 0 -7
BITMAP
fffff800
fffff800
fffff800
00007800
00007800
00007800
00007800
00007800
00007800
00007800
00007800
00007800
00007800
00007800
00fff800
00fff800
00fff800
00fff800
00007800
00007800
00007800
00007800
00007800
00007800
00007800
00007800
00007800
00007800
00007800
fffff800
fffff800
fffff800
00000000
00000000
00000000
00000000
00000000
00000000
00000000
00000000
ENDCHAR
STARTCHAR C026
ENCODING 22
SWIDTH 963 0
DWIDTH 25 0
BBX 25 40 0 -7
BITMAP
00000000
00000000
00000000
00000000
00000000
00000000
00000000
00000000
00000000
00000000
00000000
00000000
01fc0000
07ff0000
0fff8000
1c01c000
3e03e000
7f07f000
630e1000
e3fe1800
e1fc1800
e0f81800
e0f81800
e1fc1800
e3fe1800
638e1000
7f07f000
3e03e000
1c01c000
0fff8000
07ff0000
01fc0000
00000000
00000000
00000000
00000000
00000000
00000000
00000000
00000000
ENDCHAR
STARTCHAR C027
ENCODING 23
SWIDTH 963 0
DWIDTH 25 0
BBX 25 40 0 -7
BITMAP
00000000
00000000
00000000
00000000
00000000
00000000
00000000
00000000
00000000
00000000
00000000
00000000
00000000
06030000
06030000
1e03c000
3c01e000
3800e000
fffff800
fffff800
fffff800
fffff800
fffff800
3800e000
1c01c000
1e03c000
06030000
06030000
00000000
00000000
00000000
00000000
00000000
00000000
00000000
00000000
00000000
00000000
00000000
00000000
ENDCHAR
STARTCHAR C030
ENCODING 24
SWIDTH 963 0
DWIDTH 25 0
BBX 25 40 0 -7
BITMAP
00000000
00000000
00000000
00000000
00000000
00000000
00000000
00000000
00000000
00000000
00000000
00000000
00000000
07000000
0f000000
1c000000
38000000
78000000
f0000000
fffff800
fffff800
fffff800
f0000000
78000000
38000000
1c000000
0f000000
07000000
00000000
00000000
00000000
00000000
00000000
00000000
00000000
00000000
00000000
00000000
00000000
00000000
ENDCHAR
STARTCHAR C031
ENCODING 25
SWIDTH 963 0
DWIDTH 25 0
BBX 25 40 0 -7
BITMAP
00000000
00000000
00000000
00000000
00000000
00000000
00000000
00000000
00000000
00000000
00000000
00000000
00000000
00070000
00078000
0001c000
0000e000
0000f000
00007800
fffff800
fffff800
fffff800
00007800
0000f000
0000e000
0001c000
00078000
00070000
00000000
00000000
00000000
00000000
00000000
00000000
00000000
00000000
00000000
00000000
00000000
00000000
ENDCHAR
STARTCHAR C032
ENCODING 26
SWIDTH 963 0
DWIDTH 25 0
BBX 25 40 0 -7
BITMAP
00000000
00000000
00000000
00000000
00000000
00000000
00000000
00000000
00000000
00000000
00000000
00000000
0000e000
0001c000
00038000
00078000
fffff000
fffff000
fffff000
003c0000
00380000
00700000
00f00000
fffff000
fffff000
fffff000
1e000000
1c000000
38000000
70000000
00000000
00000000
00000000
00000000
00000000
00000000
00000000
00000000
00000000
00000000
ENDCHAR
STARTCHAR C033
ENCODING 27
SWIDTH 963 0
DWIDTH 25 0
BBX 25 40 0 -7
BITMAP
00000000
00000000
00000000
00000000
00400000
00400000
00e00000
01f00000
01f00000
01f00000
03f80000
07fc0000
0f1e0000
1e1f0000
3c078000
7c07c000
fc07e000
fc07e000
7c07c000
3c078000
1e0f0000
1f1e0000
07fc0000
03f80000
01f00000
01f00000
01f00000
00e00000
00e00000
00400000
00000000
00000000
00000000
00000000
00000000
00000000
00000000
00000000
00000000
00000000
ENDCHAR
STARTCHAR C034
ENCODING 28
SWIDTH 963 0
DWIDTH 25 0
BBX 25 40 0 -7
BITMAP
00000000
00000000
00000000
00000000
00000000
00000000
00007000
0000f000
0007f000
001f8000
003f0000
01fc0000
03f00000
0fc00000
fe000000
fe000000
fe000000
1fc00000
0fc00000
03f80000
00fe0000
003f0000
000ff000
0003f000
0000f000
00000000
00000000
00000000
00000000
fffff000
fffff000
fffff000
00000000
00000000
00000000
00000000
00000000
00000000
00000000
00000000
ENDCHAR
STARTCHAR C035
ENCODING 29
SWIDTH 963 0
DWIDTH 25 0
BBX 25 40 0 -7
BITMAP
00000000
00000000
00000000
00000000
00000000
00000000
e0000000
f0000000
fe000000
1f800000
0fc00000
03f80000
00fe0000
003f0000
0007f000
0007f000
0007f000
003f8000
003f0000
01fc0000
03f00000
0fc00000
ff000000
fc000000
f0000000
00000000
00000000
00000000
00000000
fffff000
fffff000
fffff000
00000000
00000000
00000000
00000000
00000000
00000000
00000000
00000000
ENDCHAR
STARTCHAR C036
ENCODING 30
SWIDTH 963 0
DWIDTH 25 0
BBX 25 40 0 -7
BITMAP
00000000
00000000
00000000
00000000
00000000
00000000
00000000
00000000
00000000
00000000
00000000
00000000
00000000
fffff000
fffff000
fffff000
00000000
00000000
00000000
fffff000
fffff000
fffff000
fffff000
00000000
00000000
00000000
fffff000
fffff000
fffff000
00000000
00000000
00000000
00000000
00000000
00000000
00000000
00000000
00000000
00000000
00000000
ENDCHAR
STARTCHAR C037
ENCODING 31
SWIDTH 963 0
DWIDTH 25 0
BBX 25 40 0 -7
BITMAP
00000000
00000000
00000000
00000000
00000000
00000000
00000000
00000000
00000000
00000000
00000000
00000000
80000800
c0001800
c0001800
e0003800
e0003800
70007000
70007000
3800e000
3800e000
1c01c000
1c01c000
0e038000
0e038000
07078000
078f0000
038e0000
038e0000
01fc0000
00f80000
00700000
00000000
00000000
00000000
00000000
00000000
00000000
00000000
00000000
ENDCHAR
STARTCHAR C040
ENCODING 32
SWIDTH 963 0
DWIDTH 25 0
BBX 25 40 0 -7
BITMAP
00000000
00000000
00000000
00000000
00000000
00000000
00000000
00000000
00000000
00000000
00000000
00000000
00000000
00000000
00000000
00000000
00000000
00000000
00000000
00000000
00000000
00000000
00000000
00000000
00000000
00000000
00000000
00000000
00000000
00000000
00000000
00000000
00000000
00000000
00000000
00000000
00000000
00000000
00000000
00000000
ENDCHAR
STARTCHAR C041
ENCODING 33
SWIDTH 963 0
DWIDTH 25 0
BBX 25 40 0 -7
BITMAP
f0000000
f0000000
f0000000
f0000000
f0000000
f0000000
f0000000
f0000000
f0000000
f0000000
f0000000
f0000000
f0000000
f0000000
f0000000
f0000000
f0000000
f0000000
f0000000
f0000000
f0000000
f0000000
00000000
00000000
00000000
00000000
00000000
f0000000
f0000000
f0000000
f0000000
f0000000
00000000
00000000
00000000
00000000
00000000
00000000
00000000
00000000
ENDCHAR
STARTCHAR C042
ENCODING 34
SWIDTH 963 0
DWIDTH 25 0
BBX 25 40 0 -7
BITMAP
f0f00000
f0f00000
f0f00000
f0f00000
f0f00000
f0f00000
f0f00000
f0f00000
f0f00000
f0f00000
f0f00000
f0f00000
f0f00000
00000000
00000000
00000000
00000000
00000000
00000000
00000000
00000000
00000000
00000000
00000000
00000000
00000000
00000000
00000000
00000000
00000000
00000000
00000000
00000000
00000000
00000000
00000000
00000000
00000000
00000000
00000000
ENDCHAR
STARTCHAR C043
ENCODING 35
SWIDTH 963 0
DWIDTH 25 0
BBX 25 40 0 -7
BITMAP
00f00e00
00f00e00
00f00e00
00f00e00
00e01e00
01c03c00
01c03c00
01c03c00
3ffffe00
3ffffe00
3ffffe00
0700f000
0700f000
0700f000
0700f000
0700f000
0e01c000
0e01c000
0e01c000
0e01c000
0e01c000
fffff800
fffff800
fffff800
78070000
78070000
78070000
700e0000
f00e0000
f00e0000
f00e0000
f00e0000
00000000
00000000
00000000
00000000
00000000
00000000
00000000
00000000
ENDCHAR
STARTCHAR C044
ENCODING 36
SWIDTH 963 0
DWIDTH 25 0
BBX 25 40 0 -7
BITMAP
070e0000
070e0000
070e0000
0fff0000
1fff8000
3fffc000
7f0fe000
7f0ff000
770ef000
770e7000
770e0000
7f0e0000
7f0e0000
3f0e0000
1ffe0000
0ffe0000
07ff0000
07ff8000
070fc000
070fe000
070fe000
070ee000
e70ee000
f70ee000
ff0fe000
7f0fe000
3fffc000
1fff8000
0fff0000
070e0000
070e0000
070e0000
00000000
00000000
00000000
00000000
00000000
00000000
00000000
00000000
ENDCHAR
STARTCHAR C045
ENCODING 37
SWIDTH 963 0
DWIDTH 25 0
BBX 25 40 0 -7
BITMAP
00007000
00007000
3e007000
7f00e000
ff81e000
e1c1c000
e1c3c000
e1c38000
e1c38000
e1c70000
7f8f0000
3f0e0000
000e0000
001c0000
003c0000
00380000
00780000
00700000
00700000
00e00000
01e00000
01c3c000
03c7e000
038ff000
039c1800
071c1800
0f1c1800
0e1c1800
1e1c1800
1c0ff000
1c07e000
1c03c000
00000000
00000000
00000000
00000000
00000000
00000000
00000000
00000000
ENDCHAR
STARTCHAR C046
ENCODING 38
SWIDTH 963 0
DWIDTH 25 0
BBX 25 40 0 -7
BITMAP
007e0000
00ff0000
07cf8000
0787c000
0703c000
0f01c000
0f01c000
0f01c000
0f038000
07878000
03cf8000
01fc0000
03f80000
0ff00000
1ff00000
3ff00000
7cf80000
f87c0000
f03e0000
f03e3800
f01f3800
f00f3800
f00fb800
f00fb800
f007f000
f807f000
fc07f000
7e0ff800
7ffff800
3ffe3800
0ffc0000
03f80000
00000000
00000000
00000000
00000000
00000000
00000000
00000000
00000000
ENDCHAR
STARTCHAR C047
ENCODING 39
SWIDTH 963 0
DWIDTH 25 0
BBX 25 40 0 -7
BITMAP
7e000000
7e000000
ff000000
ff000000
7f000000
3f000000
1f000000
1e000000
1c000000
38000000
30000000
20000000
00000000
00000000
00000000
00000000
00000000
00000000
00000000
00000000
00000000
00000000
00000000
00000000
00000000
00000000
00000000
00000000
00000000
00000000
00000000
00000000
00000000
00000000
00000000
00000000
00000000
00000000
00000000
00000000
ENDCHAR
STARTCHAR C050
ENCODING 40
SWIDTH 963 0
DWIDTH 25 0
BBX 25 40 0 -7
BITMAP
0f000000
1f000000
1e000000
3c000000
38000000
70000000
70000000
70000000
70000000
70000000
f0000000
f0000000
f0000000
f0000000
f0000000
f0000000
f0000000
f0000000
f0000000
f0000000
f0000000
f0000000
70000000
70000000
70000000
70000000
70000000
38000000
3c000000
1e000000
1f000000
0f000000
00000000
00000000
00000000
00000000
00000000
00000000
00000000
00000000
ENDCHAR
STARTCHAR C051
ENCODING 41
SWIDTH 963 0
DWIDTH 25 0
BBX 25 40 0 -7
BITMAP
f0000000
f8000000
7c000000
3c000000
1e000000
0e000000
0e000000
0f000000
0f000000
0f000000
0f000000
0f800000
0f800000
0f800000
0f800000
0f800000
0f800000
0f800000
0f800000
0f800000
0f800000
0f000000
0f000000
0f000000
0f000000
0e000000
0e000000
1e000000
3c000000
7c000000
f8000000
f0000000
00000000
00000000
00000000
00000000
00000000
00000000
00000000
00000000
ENDCHAR
STARTCHAR C052
ENCODING 42
SWIDTH 963 0
DWIDTH 25 0
BBX 25 40 0 -7
BITMAP
00000000
00000000
00000000
00000000
00000000
00000000
00000000
00000000
00380000
007c0000
007c0000
e0380e00
f0381e00
f8383e00
fc387e00
fe38fe00
1ffff000
0fffe000
07ffc000
03ff8000
03ff8000
07ffc000
0fffe000
1ffff000
fe38fe00
fc387e00
f8383e00
f0381e00
e0380e00
007c0000
007c0000
00380000
00000000
00000000
00000000
00000000
00000000
00000000
00000000
00000000
ENDCHAR
STARTCHAR C053
ENCODING 43
SWIDTH 963 0
DWIDTH 25 0
BBX 25 40 0 -7
BITMAP
00000000
00000000
00000000
00000000
00000000
00000000
00000000
00000000
00000000
00000000
00380000
00380000
00380000
00380000
00380000
00380000
00380000
00380000
00380000
fffffe00
fffffe00
fffffe00
fffffe00
00380000
00380000
00380000
00380000
00380000
00380000
00380000
00380000
00380000
00000000
00000000
00000000
00000000
00000000
00000000
00000000
00000000
ENDCHAR
STARTCHAR C054
ENCODING 44
SWIDTH 963 0
DWIDTH 25 0
BBX 25 40 0 -7
BITMAP
00000000
00000000
00000000
00000000
00000000
00000000
00000000
00000000
00000000
00000000
00000000
00000000
00000000
00000000
00000000
00000000
00000000
00000000
00000000
00000000
00000000
00000000
00000000
00000000
00000000
00000000
7e000000
7e000000
ff000000
ff000000
7f000000
3f000000
1f000000
1e000000
1c000000
38000000
30000000
20000000
00000000
00000000
ENDCHAR
STARTCHAR C055
ENCODING 45
SWIDTH 963 0
DWIDTH 25 0
BBX 25 40 0 -7
BITMAP
00000000
00000000
00000000
00000000
00000000
00000000
00000000
00000000
00000000
00000000
00000000
00000000
00000000
00000000
00000000
00000000
00000000
00000000
00000000
fffff000
fffff000
fffff000
00000000
00000000
00000000
00000000
00000000
00000000
00000000
00000000
00000000
00000000
00000000
00000000
00000000
00000000
00000000
00000000
00000000
00000000
ENDCHAR
STARTCHAR C056
ENCODING 46
SWIDTH 963 0
DWIDTH 25 0
BBX 25 40 0 -7
BITMAP
00000000
00000000
00000000
00000000
00000000
00000000
00000000
00000000
00000000
00000000
00000000
00000000
00000000
00000000
00000000
00000000
00000000
00000000
00000000
00000000
00000000
00000000
00000000
00000000
3c000000
7e000000
ff000000
ff000000
ff000000
ff000000
7e000000
3c000000
00000000
00000000
00000000
00000000
00000000
00000000
00000000
00000000
ENDCHAR
STARTCHAR C057
ENCODING 47
SWIDTH 963 0
DWIDTH 25 0
BBX 25 40 0 -7
BITMAP
0001e000
0001e000
0001c000
0003c000
00078000
00070000
000f0000
000f0000
001e0000
001e0000
003c0000
00380000
00780000
00f80000
00f00000
00f00000
01e00000
01e00000
03c00000
07c00000
07800000
07000000
0f000000
0f000000
1e000000
1e000000
3c000000
38000000
78000000
f8000000
f0000000
e0000000
00000000
00000000
00000000
00000000
00000000
00000000
00000000
00000000
ENDCHAR
STARTCHAR C060
ENCODING 48
SWIDTH 963 0
DWIDTH 25 0
BBX 25 40 0 -7
BITMAP
03fe0000
07ff0000
0fff8000
1fffc000
3e03f800
7c01f800
7801f800
7801f800
7801f800
7801f000
7803f000
7807f000
780ff000
781ef000
783cf000
7878f000
78f0f000
79e0f000
7bc0f000
7f80f000
7f00f000
7e00f000
7c00f000
7c00f000
fc00f000
fc00f000
fc01f000
fe03e000
1fffc000
0fff8000
07ff0000
03fe0000
00000000
00000000
00000000
00000000
00000000
00000000
00000000
00000000
ENDCHAR
STARTCHAR C061
ENCODING 49
SWIDTH 963 0
DWIDTH 25 0
BBX 25 40 0 -7
BITMAP
0f800000
0f800000
1f800000
3f800000
73800000
e3800000
03800000
03800000
03800000
03800000
03800000
03800000
03800000
03800000
03800000
03800000
03800000
03800000
03800000
03800000
03800000
03800000
03800000
03800000
03800000
03800000
03800000
03800000
03800000
ffff0000
ffff0000
ffff0000
00000000
00000000
00000000
00000000
00000000
00000000
00000000
00000000
ENDCHAR
STARTCHAR C062
ENCODING 50
SWIDTH 963 0
DWIDTH 25 0
BBX 25 40 0 -7
BITMAP
07fe0000
7fffe000
7fffe000
7801e000
7000e000
e0007000
e0007000
e0007000
00007000
00007000
00007000
0000e000
0001c000
00038000
00070000
000e0000
001c0000
00380000
00700000
00e00000
01c00000
03800000
07000000
0e000000
1c000000
38000000
70000000
e0000000
e0000000
fffff000
fffff000
fffff000
00000000
00000000
00000000
00000000
00000000
00000000
00000000
00000000
ENDCHAR
STARTCHAR C063
ENCODING 51
SWIDTH 963 0
DWIDTH 25 0
BBX 25 40 0 -7
BITMAP
03ff0000
07ff8000
3ffff000
3ffff000
38007000
f0007800
f0007800
f0007800
00007800
00007000
00007000
0000e000
0000e000
0001c000
00ff8000
00ff8000
00ff8000
00ff8000
0001c000
0000e000
0000e000
00007000
00007000
00007800
f0007800
f0007800
f0007800
30007000
3ffff000
3ffff000
07ff8000
03ff0000
00000000
00000000
00000000
00000000
00000000
00000000
00000000
00000000
ENDCHAR
STARTCHAR C064
ENCODING 52
SWIDTH 963 0
DWIDTH 25 0
BBX 25 40 0 -7
BITMAP
00700000
00f00000
00f00000
00e00000
01c00000
03c00000
03800000
03800000
07000000
0f000000
0e000000
1e0f0000
1c0f0000
1c0f0000
380f0000
780f0000
700f0000
f00f0000
e00f0000
e00f0000
e00f0000
fffff000
fffff000
fffff000
000f0000
000f0000
000f0000
000f0000
000f0000
000f0000
000f0000
000f0000
00000000
00000000
00000000
00000000
00000000
00000000
00000000
00000000
ENDCHAR
STARTCHAR C065
ENCODING 53
SWIDTH 963 0
DWIDTH 25 0
BBX 25 40 0 -7
BITMAP
fffff000
fffff000
fffff000
f0000000
f0000000
f0000000
f0000000
f0000000
f0000000
f0000000
f0000000
f0000000
f0000000
f0000000
f0000000
ffff0000
fffff000
fffff000
0000f000
00007000
00007800
00007800
00007800
00007800
f0007800
f0007800
f0007800
70007000
3800f000
3ffff000
3ffff000
07ff0000
00000000
00000000
00000000
00000000
00000000
00000000
00000000
00000000
ENDCHAR
STARTCHAR C066
ENCODING 54
SWIDTH 963 0
DWIDTH 25 0
BBX 25 40 0 -7
BITMAP
07fe0000
0fff0000
7fffe000
7fffe000
7000e000
e0007000
e0007000
e0007000
e0000000
e0000000
e0000000
e0000000
e0000000
e0000000
e0000000
e1f80000
e7fe0000
fffe0000
fe0fe000
f801e000
f000e000
e0007000
e0007000
e0007000
e0007000
e0007000
e0007000
7000e000
7fffe000
7fffe000
0fff0000
07fe0000
00000000
00000000
00000000
00000000
00000000
00000000
00000000
00000000
ENDCHAR
STARTCHAR C067
ENCODING 55
SWIDTH 963 0
DWIDTH 25 0
BBX 25 40 0 -7
BITMAP
fffff000
fffff000
fffff000
0000f000
0000f000
0000e000
0000e000
0000c000
0003c000
00038000
00038000
00070000
00070000
000e0000
000e0000
001c0000
001c0000
00380000
00780000
00700000
00700000
00e00000
00e00000
01c00000
03c00000
03800000
03800000
07000000
0f000000
0f000000
0f000000
0f000000
00000000
00000000
00000000
00000000
00000000
00000000
00000000
00000000
ENDCHAR
STARTCHAR C070
ENCODING 56
SWIDTH 963 0
DWIDTH 25 0
BBX 25 40 0 -7
BITMAP
03f80000
07fc0000
3fff8000
3fff8000
38038000
7001c000
7001c000
7001c000
7001c000
38038000
3c078000
3f1f8000
3fff8000
03f80000
03f80000
01f00000
0ffe0000
0ffe0000
7e0fc000
7803c000
6000c000
e000e000
e000e000
e000e000
e000e000
e000e000
e000e000
e000c000
7fffc000
7fffc000
0ffe0000
0ffe0000
00000000
00000000
00000000
00000000
00000000
00000000
00000000
00000000
ENDCHAR
STARTCHAR C071
ENCODING 57
SWIDTH 963 0
DWIDTH 25 0
BBX 25 40 0 -7
BITMAP
03ff0000
07ff8000
3ffff000
3ffff000
38007000
70007800
70007800
70007800
70007800
70007800
70007800
38007800
3c00f800
3f07f800
07fff800
03ff7800
00f87800
00007800
00007800
00007800
00007800
00007800
00007800
00007800
f0007800
f0007800
f0007800
30007000
3ffff000
3ffff000
07ff8000
03ff0000
00000000
00000000
00000000
00000000
00000000
00000000
00000000
00000000
ENDCHAR
STARTCHAR C072
ENCODING 58
SWIDTH 963 0
DWIDTH 25 0
BBX 25 40 0 -7
BITMAP
00000000
00000000
00000000
00000000
00000000
00000000
00000000
00000000
00000000
00000000
00000000
00000000
3e000000
7e000000
ff000000
ff000000
ff000000
ff000000
7e000000
00000000
00000000
00000000
00000000
00000000
00000000
7e000000
ff000000
ff000000
ff000000
ff000000
7e000000
7e000000
00000000
00000000
00000000
00000000
00000000
00000000
00000000
00000000
ENDCHAR
STARTCHAR C073
ENCODING 59
SWIDTH 963 0
DWIDTH 25 0
BBX 25 40 0 -7
BITMAP
00000000
00000000
00000000
00000000
00000000
00000000
00000000
00000000
00000000
00000000
00000000
00000000
00000000
3c000000
7e000000
ff000000
ff000000
ff000000
ff000000
7e000000
00000000
00000000
00000000
00000000
00000000
00000000
7e000000
ff000000
ff000000
ff000000
7f000000
3f000000
1f000000
1e000000
1c000000
38000000
30000000
20000000
00000000
00000000
ENDCHAR
STARTCHAR C074
ENCODING 60
SWIDTH 963 0
DWIDTH 25 0
BBX 25 40 0 -7
BITMAP
00000000
00000000
00000000
00000000
00000000
00000000
00000000
00000000
00000000
00000000
00000000
0000f000
0001f000
0007f000
001f8000
007e0000
01f80000
07e00000
1fc00000
fe000000
fe000000
fe000000
1fc00000
07e00000
01f80000
007e0000
001f8000
0007f000
0001f000
0000f000
00000000
00000000
00000000
00000000
00000000
00000000
00000000
00000000
00000000
00000000
ENDCHAR
STARTCHAR C075
ENCODING 61
SWIDTH 963 0
DWIDTH 25 0
BBX 25 40 0 -7
BITMAP
00000000
00000000
00000000
00000000
00000000
00000000
00000000
00000000
00000000
00000000
00000000
00000000
00000000
00000000
00000000
00000000
fffff000
fffff000
fffff000
00000000
00000000
00000000
00000000
fffff000
fffff000
fffff000
00000000
00000000
00000000
00000000
00000000
00000000
00000000
00000000
00000000
00000000
00000000
00000000
00000000
00000000
ENDCHAR
STARTCHAR C076
ENCODING 62
SWIDTH 963 0
DWIDTH 25 0
BBX 25 40 0 -7
BITMAP
00000000
00000000
00000000
00000000
00000000
00000000
00000000
00000000
00000000
00000000
00000000
f0000000
f8000000
fe000000
1f800000
07e00000
01f80000
007e0000
003f8000
0007f000
0007f000
0007f000
003f8000
007e0000
01f80000
07e00000
1fc00000
fe000000
f8000000
f0000000
00000000
00000000
00000000
00000000
00000000
00000000
00000000
00000000
00000000
00000000
ENDCHAR
STARTCHAR C077
ENCODING 63
SWIDTH 963 0
DWIDTH 25 0
BBX 25 40 0 -7
BITMAP
07fc0000
0ffe0000
1fff8000
3e078000
7c03c000
f801e000
f000e000
e000e000
0000e000
0000e000
0000e000
0001e000
0003e000
0007c000
000f8000
001f0000
003e0000
007c0000
00f80000
01f00000
01c00000
01c00000
01c00000
01c00000
00000000
00000000
00000000
01e00000
01e00000
01e00000
01e00000
01e00000
00000000
00000000
00000000
00000000
00000000
00000000
00000000
00000000
ENDCHAR
STARTCHAR C100
ENCODING 64
SWIDTH 963 0
DWIDTH 25 0
BBX 25 40 0 -7
BITMAP
00000000
00000000
00000000
00000000
00000000
00000000
00000000
00000000
00000000
00000000
03fe0000
0fff8000
3fffe000
7001f000
e000f800
e0007800
e0003800
e1fc3800
e3ffb800
e383b800
e383b800
e383b800
e383f800
e3fff000
e1ffe000
e0000000
f0000000
f8000000
7c007800
3ffff000
0fffe000
03ff8000
00000000
00000000
00000000
00000000
00000000
00000000
00000000
00000000
ENDCHAR
STARTCHAR C101
ENCODING 65
SWIDTH 963 0
DWIDTH 25 0
BBX 25 40 0 -7
BITMAP
00600000
00f00000
00f00000
01f80000
01f80000
03fc0000
03fc0000
039c0000
039c0000
070e0000
070e0000
0f0f0000
0e070000
0e070000
1c038000
1c038000
1c038000
1c038000
3c03c000
3fffc000
7fffe000
7fffe000
7000e000
7000e000
7000e000
f000f000
f000f000
e0007000
e0007000
e0007000
e0007000
e0007000
00000000
00000000
00000000
00000000
00000000
00000000
00000000
00000000
ENDCHAR
STARTCHAR C102
ENCODING 66
SWIDTH 963 0
DWIDTH 25 0
BBX 25 40 0 -7
BITMAP
fffe0000
fffe0000
ffffc000
f001c000
f001c000
f000e000
f000e000
f000e000
f000e000
f000e000
f000e000
f000e000
f000e000
f001c000
ffffc000
ffffc000
ffffe000
ffffe000
f0007000
f0007800
f0007800
f0007800
f0007800
f0007800
f0007800
f0007800
f0007800
f0007000
f000f000
fffff000
ffff8000
ffff0000
00000000
00000000
00000000
00000000
00000000
00000000
00000000
00000000
ENDCHAR
STARTCHAR C103
ENCODING 67
SWIDTH 963 0
DWIDTH 25 0
BBX 25 40 0 -7
BITMAP
07fe0000
0fff0000
7fffe000
7fffe000
7000e000
e0007000
e0007000
e0007000
e0000000
e0000000
e0000000
e0000000
e0000000
e0000000
e0000000
e0000000
e0000000
e0000000
e0000000
e0000000
e0000000
e0000000
e0000000
e0000000
e0007000
e0007000
e0007000
7000e000
7fffe000
7fffe000
0fff0000
07fe0000
00000000
00000000
00000000
00000000
00000000
00000000
00000000
00000000
ENDCHAR
STARTCHAR C104
ENCODING 68
SWIDTH 963 0
DWIDTH 25 0
BBX 25 40 0 -7
BITMAP
ffff0000
ffff8000
fffff000
f000f000
f0007000
f0007800
f0007800
f0007800
f0007800
f0007800
f0007800
f0007800
f0007800
f0007800
f0007800
f0007800
f0007800
f0007800
f0007800
f0007800
f0007800
f0007800
f0007800
f0007800
f0007800
f0007800
f0007800
f0007000
f000f000
fffff000
ffff8000
ffff0000
00000000
00000000
00000000
00000000
00000000
00000000
00000000
00000000
ENDCHAR
STARTCHAR C105
ENCODING 69
SWIDTH 963 0
DWIDTH 25 0
BBX 25 40 0 -7
BITMAP
fffff000
fffff000
fffff000
e0000000
e0000000
e0000000
e0000000
e0000000
e0000000
e0000000
e0000000
e0000000
e0000000
e0000000
ffff8000
ffff8000
ffff8000
ffff8000
e0000000
e0000000
e0000000
e0000000
e0000000
e0000000
e0000000
e0000000
e0000000
e0000000
e0000000
fffff000
fffff000
fffff000
00000000
00000000
00000000
00000000
00000000
00000000
00000000
00000000
ENDCHAR
STARTCHAR C106
ENCODING 70
SWIDTH 963 0
DWIDTH 25 0
BBX 25 40 0 -7
BITMAP
fffff000
fffff000
fffff000
e0000000
e0000000
e0000000
e0000000
e0000000
e0000000
e0000000
e0000000
e0000000
e0000000
e0000000
ffff8000
ffff8000
ffff8000
ffff8000
e0000000
e0000000
e0000000
e0000000
e0000000
e0000000
e0000000
e0000000
e0000000
e0000000
e0000000
e0000000
e0000000
e0000000
00000000
00000000
00000000
00000000
00000000
00000000
00000000
00000000
ENDCHAR
STARTCHAR C107
ENCODING 71
SWIDTH 963 0
DWIDTH 25 0
BBX 25 40 0 -7
BITMAP
07fe0000
0fff0000
7fffe000
7fffe000
7000e000
e0007000
e0007000
e0007000
e0000000
e0000000
e0000000
e0000000
e0000000
e0000000
e0000000
e0000000
e0000000
e0000000
e00ff000
e00ff000
e00ff000
e0007000
e0007000
e0007000
e0007000
e0007000
e0007000
7000e000
7fffe000
7fffe000
0fff0000
07fe0000
00000000
00000000
00000000
00000000
00000000
00000000
00000000
00000000
ENDCHAR
STARTCHAR C110
ENCODING 72
SWIDTH 963 0
DWIDTH 25 0
BBX 25 40 0 -7
BITMAP
e0007000
e0007000
e0007000
e0007000
e0007000
e0007000
e0007000
e0007000
e0007000
e0007000
e0007000
e0007000
e0007000
e0007000
fffff000
fffff000
fffff000
fffff000
e0007000
e0007000
e0007000
e0007000
e0007000
e0007000
e0007000
e0007000
e0007000
e0007000
e0007000
e0007000
e0007000
e0007000
00000000
00000000
00000000
00000000
00000000
00000000
00000000
00000000
ENDCHAR
STARTCHAR C111
ENCODING 73
SWIDTH 963 0
DWIDTH 25 0
BBX 25 40 0 -7
BITMAP
ffc00000
ffc00000
ffc00000
1e000000
1e000000
1e000000
1e000000
1e000000
1e000000
1e000000
1e000000
1e000000
1e000000
1e000000
1e000000
1e000000
1e000000
1e000000
1e000000
1e000000
1e000000
1e000000
1e000000
1e000000
1e000000
1e000000
1e000000
1e000000
1e000000
ffc00000
ffc00000
ffc00000
00000000
00000000
00000000
00000000
00000000
00000000
00000000
00000000
ENDCHAR
STARTCHAR C112
ENCODING 74
SWIDTH 963 0
DWIDTH 25 0
BBX 25 40 0 -7
BITMAP
00007000
00007000
00007000
00007000
00007000
00007000
00007000
00007000
00007000
00007000
00007000
00007000
00007000
00007000
00007000
00007000
00007000
00007000
00007000
00007000
00007000
00007000
00007000
00007000
e0007000
e0007000
e0007000
60006000
7801e000
7fffe000
7fffe000
07fe0000
00000000
00000000
00000000
00000000
00000000
00000000
00000000
00000000
ENDCHAR
STARTCHAR C113
ENCODING 75
SWIDTH 963 0
DWIDTH 25 0
BBX 25 40 0 -7
BITMAP
e0007000
e000f000
e001f000
e001e000
e007c000
e0078000
e00f0000
e03e0000
e03c0000
e0f80000
e1f00000
e1e00000
e7c00000
e7800000
ff000000
fe000000
fc000000
fe000000
ff000000
ff800000
e7c00000
e3e00000
e1f00000
e0f80000
e07c0000
e03e0000
e01f0000
e00f8000
e007c000
e003e000
e001e000
e000e000
00000000
00000000
00000000
00000000
00000000
00000000
00000000
00000000
ENDCHAR
STARTCHAR C114
ENCODING 76
SWIDTH 963 0
DWIDTH 25 0
BBX 25 40 0 -7
BITMAP
e0000000
e0000000
e0000000
e0000000
e0000000
e0000000
e0000000
e0000000
e0000000
e0000000
e0000000
e0000000
e0000000
e0000000
e0000000
e0000000
e0000000
e0000000
e0000000
e0000000
e0000000
e0000000
e0000000
e0000000
e0000000
e0000000
e0000000
e0000000
e0000000
fffff000
fffff000
fffff000
00000000
00000000
00000000
00000000
00000000
00000000
00000000
00000000
ENDCHAR
STARTCHAR C115
ENCODING 77
SWIDTH 963 0
DWIDTH 25 0
BBX 25 40 0 -7
BITMAP
e0007000
f000f000
f801f000
f801f000
fe07f000
fe07f000
ff0ff000
e79e7000
e39c7000
e1f87000
e0f07000
e0607000
e0607000
e0607000
e0007000
e0007000
e0007000
e0007000
e0007000
e0007000
e0007000
e0007000
e0007000
e0007000
e0007000
e0007000
e0007000
e0007000
e0007000
e0007000
e0007000
e0007000
00000000
00000000
00000000
00000000
00000000
00000000
00000000
00000000
ENDCHAR
STARTCHAR C116
ENCODING 78
SWIDTH 963 0
DWIDTH 25 0
BBX 25 40 0 -7
BITMAP
f0007000
f0007000
f0007000
f8007000
fc007000
fc007000
fe007000
ee007000
e7007000
e7007000
e3807000
e3807000
e1c07000
e1c07000
e0e07000
e0e07000
e0707000
e0707000
e0387000
e0387000
e01c7000
e01c7000
e00e7000
e00e7000
e0077000
e007f000
e003f000
e003f000
e001f000
e000f000
e000f000
e000f000
00000000
00000000
00000000
00000000
00000000
00000000
00000000
00000000
ENDCHAR
STARTCHAR C117
ENCODING 79
SWIDTH 963 0
DWIDTH 25 0
BBX 25 40 0 -7
BITMAP
0ffe0000
0ffe0000
7fffc000
7fffc000
6000c000
e000e000
e000e000
e000e000
e000e000
e000e000
e000e000
e000e000
e000e000
e000e000
e000e000
e000e000
e000e000
e000e000
e000e000
e000e000
e000e000
e000e000
e000e000
e000e000
e000e000
e000e000
e000e000
e000c000
7fffc000
7fffc000
0ffe0000
0ffe0000
00000000
00000000
00000000
00000000
00000000
00000000
00000000
00000000
ENDCHAR
STARTCHAR C120
ENCODING 80
SWIDTH 963 0
DWIDTH 25 0
BBX 25 40 0 -7
BITMAP
ffff0000
ffff8000
fffff000
f000f000
f0007000
f0007800
f0007800
f0007800
f0007800
f0007800
f0007800
f0007800
f0007800
f0007000
fffff000
fffff000
ffff0000
ffff0000
f0000000
f0000000
f0000000
f0000000
f0000000
f0000000
f0000000
f0000000
f0000000
f0000000
f0000000
f0000000
f0000000
f0000000
00000000
00000000
00000000
00000000
00000000
00000000
00000000
00000000
ENDCHAR
STARTCHAR C121
ENCODING 81
SWIDTH 963 0
DWIDTH 25 0
BBX 25 40 0 -7
BITMAP
0ffe0000
0ffe0000
7fffc000
7fffc000
6000c000
e000e000
e000e000
e000e000
e000e000
e000e000
e000e000
e000e000
e000e000
e000e000
e000e000
e000e000
e000e000
e000e000
e000e000
e000e000
e000e000
e000e000
e000e000
e000e000
e00ee000
e00fe000
e00fe000
e007e000
7fffe000
7ffff000
0ffff800
0ffe7800
00003800
00001800
00000000
00000000
00000000
00000000
00000000
00000000
ENDCHAR
STARTCHAR C122
ENCODING 82
SWIDTH 963 0
DWIDTH 25 0
BBX 25 40 0 -7
BITMAP
fffe0000
ffff0000
ffffe000
e001e000
e000e000
e0007000
e0007000
e0007000
e0007000
e0007000
e0007000
e0007000
e0007000
e000e000
ffffe000
ffffe000
ffff0000
ffff0000
e0038000
e0038000
e003c000
e001c000
e001c000
e001e000
e000e000
e000e000
e000e000
e000e000
e000e000
e0007000
e0007000
e0007000
00000000
00000000
00000000
00000000
00000000
00000000
00000000
00000000
ENDCHAR
STARTCHAR C123
ENCODING 83
SWIDTH 963 0
DWIDTH 25 0
BBX 25 40 0 -7
BITMAP
07fe0000
0fff0000
7fffe000
7fffe000
7000e000
e0007000
e0007000
e0007000
e0000000
e0000000
e0000000
e0000000
e0000000
70000000
7ff00000
7fffc000
0fffc000
007fe000
0000e000
00007000
00007000
00007000
00007000
00007000
e0007000
e0007000
e0007000
7000e000
7fffe000
7fffe000
0fff0000
07fe0000
00000000
00000000
00000000
00000000
00000000
00000000
00000000
00000000
ENDCHAR
STARTCHAR C124
ENCODING 84
SWIDTH 963 0
DWIDTH 25 0
BBX 25 40 0 -7
BITMAP
fffff000
fffff000
fffff000
00f00000
00f00000
00f00000
00f00000
00f00000
00f00000
00f00000
00f00000
00f00000
00f00000
00f00000
00f00000
00f00000
00f00000
00f00000
00f00000
00f00000
00f00000
00f00000
00f00000
00f00000
00f00000
00f00000
00f00000
00f00000
00f00000
00f00000
00f00000
00f00000
00000000
00000000
00000000
00000000
00000000
00000000
00000000
00000000
ENDCHAR
STARTCHAR C125
ENCODING 85
SWIDTH 963 0
DWIDTH 25 0
BBX 25 40 0 -7
BITMAP
e0007000
e0007000
e0007000
e0007000
e0007000
e0007000
e0007000
e0007000
e0007000
e0007000
e0007000
e0007000
e0007000
e0007000
e0007000
e0007000
e0007000
e0007000
e0007000
e0007000
e0007000
e0007000
e0007000
e0007000
e0007000
e0007000
e0007000
60006000
7801e000
7fffe000
7fffe000
07fe0000
00000000
00000000
00000000
00000000
00000000
00000000
00000000
00000000
ENDCHAR
STARTCHAR C126
ENCODING 86
SWIDTH 963 0
DWIDTH 25 0
BBX 25 40 0 -7
BITMAP
e0007000
e0007000
e0007000
e0007000
7000e000
7000e000
7801e000
3801c000
3801c000
1c038000
1c038000
1c038000
1c038000
0e070000
0e070000
0f0f0000
070e0000
070e0000
039c0000
039c0000
039c0000
039c0000
01f80000
01f80000
01f80000
00f00000
00f00000
00f00000
00600000
00600000
00600000
00000000
00000000
00000000
00000000
00000000
00000000
00000000
00000000
00000000
ENDCHAR
STARTCHAR C127
ENCODING 87
SWIDTH 963 0
DWIDTH 25 0
BBX 25 40 0 -7
BITMAP
e0007000
e0007000
e0007000
e0007000
e0007000
e0007000
e0007000
e0007000
e0007000
e0007000
e0007000
e0007000
e0007000
e0007000
e0007000
e0007000
e0007000
e0007000
e0607000
e0607000
e0607000
e0f07000
e1f87000
e3fc7000
e7fe7000
ff0ff000
fe07f000
fe07f000
f801f000
f801f000
f000f000
e0007000
00000000
00000000
00000000
00000000
00000000
00000000
00000000
00000000
ENDCHAR
STARTCHAR C130
ENCODING 88
SWIDTH 963 0
DWIDTH 25 0
BBX 25 40 0 -7
BITMAP
e0007000
e0007000
e0007000
7000e000
7000e000
7801e000
3801c000
1c038000
1c038000
0e070000
0e070000
0f0f0000
070e0000
039c0000
03fc0000
03fc0000
03fc0000
03fc0000
039c0000
070e0000
070e0000
0e070000
0e070000
1c038000
1c038000
3801c000
7801e000
7000e000
7000e000
e0007000
e0007000
e0007000
00000000
00000000
00000000
00000000
00000000
00000000
00000000
00000000
ENDCHAR
STARTCHAR C131
ENCODING 89
SWIDTH 963 0
DWIDTH 25 0
BBX 25 40 0 -7
BITMAP
80002000
c0006000
c0006000
e000e000
e000e000
e000e000
7001c000
7803c000
38038000
3c078000
1c070000
1c070000
0e0e0000
0f1e0000
07fe0000
07fc0000
03f80000
01f00000
00e00000
00e00000
00e00000
00e00000
00e00000
00e00000
00e00000
00e00000
00e00000
00e00000
00e00000
00e00000
00e00000
00e00000
00000000
00000000
00000000
00000000
00000000
00000000
00000000
00000000
ENDCHAR
STARTCHAR C132
ENCODING 90
SWIDTH 963 0
DWIDTH 25 0
BBX 25 40 0 -7
BITMAP
fffff000
fffff000
fffff000
0000f000
0000f000
0000e000
0001c000
00038000
00078000
000f0000
000e0000
001e0000
003c0000
003c0000
00780000
00700000
00e00000
01e00000
03c00000
03c00000
07800000
07000000
0f000000
1e000000
1c000000
38000000
70000000
f0000000
f0000000
fffff000
fffff000
fffff000
00000000
00000000
00000000
00000000
00000000
00000000
00000000
00000000
ENDCHAR
STARTCHAR C133
ENCODING 91
SWIDTH 963 0
DWIDTH 25 0
BBX 25 40 0 -7
BITMAP
ff800000
ff800000
ff800000
e0000000
e0000000
e0000000
e0000000
e0000000
e0000000
e0000000
e0000000
e0000000
e0000000
e0000000
e0000000
e0000000
e0000000
e0000000
e0000000
e0000000
e0000000
e0000000
e0000000
e0000000
e0000000
e0000000
e0000000
e0000000
e0000000
ff800000
ff800000
ff800000
00000000
00000000
00000000
00000000
00000000
00000000
00000000
00000000
ENDCHAR
STARTCHAR C134
ENCODING 92
SWIDTH 963 0
DWIDTH 25 0
BBX 25 40 0 -7
BITMAP
f0000000
f0000000
f0000000
78000000
78000000
3c000000
3c000000
1e000000
0e000000
0f000000
0f000000
07800000
07800000
03c00000
03c00000
01e00000
01f00000
00f00000
00f00000
00780000
00780000
003c0000
003c0000
001e0000
000e0000
000f0000
000f0000
00078000
00078000
0003c000
0003c000
0001c000
00000000
00000000
00000000
00000000
00000000
00000000
00000000
00000000
ENDCHAR
STARTCHAR C135
ENCODING 93
SWIDTH 963 0
DWIDTH 25 0
BBX 25 40 0 -7
BITMAP
ffc00000
ffc00000
ffc00000
01c00000
01c00000
01c00000
01c00000
01c00000
01c00000
01c00000
01c00000
01c00000
01c00000
01c00000
01c00000
01c00000
01c00000
01c00000
01c00000
01c00000
01c00000
01c00000
01c00000
01c00000
01c00000
01c00000
01c00000
01c00000
01c00000
ffc00000
ffc00000
ffc00000
00000000
00000000
00000000
00000000
00000000
00000000
00000000
00000000
ENDCHAR
STARTCHAR C136
ENCODING 94
SWIDTH 963 0
DWIDTH 25 0
BBX 25 40 0 -7
BITMAP
00100000
00380000
007c0000
00fe0000
01ff0000
03c7c000
0787c000
0f01e000
1e00f000
3c007800
78003c00
f0001e00
00000000
00000000
00000000
00000000
00000000
00000000
00000000
00000000
00000000
00000000
00000000
00000000
00000000
00000000
00000000
00000000
00000000
00000000
00000000
00000000
00000000
00000000
00000000
00000000
00000000
00000000
00000000
00000000
ENDCHAR
STARTCHAR C137
ENCODING 95
SWIDTH 963 0
DWIDTH 25 0
BBX 25 40 0 -7
BITMAP
00000000
00000000
00000000
00000000
00000000
00000000
00000000
00000000
00000000
00000000
00000000
00000000
00000000
00000000
00000000
00000000
00000000
00000000
00000000
00000000
00000000
00000000
00000000
00000000
00000000
00000000
00000000
00000000
00000000
00000000
00000000
00000000
00000000
00000000
00000000
ffffff80
ffffff80
ffffff80
00000000
00000000
ENDCHAR
STARTCHAR C140
ENCODING 96
SWIDTH 963 0
DWIDTH 25 0
BBX 25 40 0 -7
BITMAP
04000000
0c000000
1c000000
38000000
78000000
f8000000
fc000000
fe000000
ff000000
ff000000
7e000000
7e000000
00000000
00000000
00000000
00000000
00000000
00000000
00000000
00000000
00000000
00000000
00000000
00000000
00000000
00000000
00000000
00000000
00000000
00000000
00000000
00000000
00000000
00000000
00000000
00000000
00000000
00000000
00000000
00000000
ENDCHAR
STARTCHAR C141
ENCODING 97
SWIDTH 963 0
DWIDTH 25 0
BBX 25 40 0 -7
BITMAP
00000000
00000000
00000000
00000000
00000000
00000000
00000000
00000000
00000000
00000000
0ffe0000
1fff0000
3fff8000
7001c000
7001c000
7001c000
0001c000
0001c000
000fc000
01ffc000
0fffc000
7ff1c000
fe01c000
f001c000
c001c000
c001c000
c007c000
c007c000
c00fc000
7ffdc000
3ff9c000
1ff1c000
00000000
00000000
00000000
00000000
00000000
00000000
00000000
00000000
ENDCHAR
STARTCHAR C142
ENCODING 98
SWIDTH 963 0
DWIDTH 25 0
BBX 25 40 0 -7
BITMAP
00000000
00000000
00000000
00000000
00000000
e0000000
e0000000
e0000000
e0000000
e0000000
e0000000
e0000000
e0fe0000
e7ffc000
ffffc000
fc01c000
f800e000
f000e000
f000e000
f000e000
f000e000
f000e000
f000e000
f000e000
f000e000
f000e000
f800e000
fc01c000
ffffc000
e7ffc000
e3fe0000
e0fc0000
00000000
00000000
00000000
00000000
00000000
00000000
00000000
00000000
ENDCHAR
STARTCHAR C143
ENCODING 99
SWIDTH 963 0
DWIDTH 25 0
BBX 25 40 0 -7
BITMAP
00000000
00000000
00000000
00000000
00000000
00000000
00000000
00000000
00000000
00000000
00000000
00000000
0ffe0000
7fff0000
7fff8000
7001c000
e001c000
e001c000
e0000000
e0000000
e0000000
e0000000
e0000000
e0000000
e0000000
e0000000
e001c000
e001c000
7001c000
7fff8000
7fff0000
0ffe0000
00000000
00000000
00000000
00000000
00000000
00000000
00000000
00000000
ENDCHAR
STARTCHAR C144
ENCODING 100
SWIDTH 963 0
DWIDTH 25 0
BBX 25 40 0 -7
BITMAP
00000000
00000000
00000000
0001c000
0001c000
0001c000
0001c000
0001c000
0001c000
0001c000
0001c000
0001c000
0fe1c000
7ffdc000
7fffc000
600fc000
e007c000
e003c000
e001c000
e001c000
e001c000
e001c000
e001c000
e001c000
e001c000
e003c000
e007c000
600fc000
7fffc000
7ffdc000
0fe1c000
0001c000
00000000
00000000
00000000
00000000
00000000
00000000
00000000
00000000
ENDCHAR
STARTCHAR C145
ENCODING 101
SWIDTH 963 0
DWIDTH 25 0
BBX 25 40 0 -7
BITMAP
00000000
00000000
00000000
00000000
00000000
00000000
00000000
00000000
00000000
00000000
00000000
00000000
0ff80000
7fff8000
7fff8000
70078000
e001c000
c001c000
c001c000
c001c000
ffffc000
ffffc000
ffffc000
c0000000
c0000000
c0000000
c001c000
e001c000
7001c000
7fff8000
7fff0000
0ffe0000
00000000
00000000
00000000
00000000
00000000
00000000
00000000
00000000
ENDCHAR
STARTCHAR C146
ENCODING 102
SWIDTH 963 0
DWIDTH 25 0
BBX 25 40 0 -7
BITMAP
00000000
00000000
00000000
00fe0000
00fe0000
01fe0000
07000000
07000000
07000000
07000000
07000000
07000000
07000000
fffe0000
fffe0000
fffe0000
07000000
07000000
07000000
07000000
07000000
07000000
07000000
07000000
07000000
07000000
07000000
07000000
07000000
07000000
07000000
07000000
00000000
00000000
00000000
00000000
00000000
00000000
00000000
00000000
ENDCHAR
STARTCHAR C147
ENCODING 103
SWIDTH 963 0
DWIDTH 25 0
BBX 25 40 0 -7
BITMAP
00000000
00000000
00000000
00000000
00000000
00000000
00000000
00000000
00000000
00000000
00000000
0001c000
0fe1c000
7ff9c000
7fffc000
700fc000
e007c000
e003c000
e001c000
e001c000
e001c000
e001c000
e001c000
e001c000
e001c000
e001c000
e003c000
e007c000
7fffc000
7ffdc000
7ff1c000
0fc1c000
0001c000
0001c000
0001c000
70038000
7fff8000
7fff8000
7fff8000
1ff80000
ENDCHAR
STARTCHAR C150
ENCODING 104
SWIDTH 963 0
DWIDTH 25 0
BBX 25 40 0 -7
BITMAP
00000000
00000000
00000000
f0000000
f0000000
f0000000
f0000000
f0000000
f0000000
f0000000
f0000000
f0000000
f1fe0000
f7ffc000
ffffc000
ff01c000
f800f000
f000f000
f000f000
f000f000
f000f000
f000f000
f000f000
f000f000
f000f000
f000f000
f000f000
f000f000
f000f000
f000f000
f000f000
f000f000
00000000
00000000
00000000
00000000
00000000
00000000
00000000
00000000
ENDCHAR
STARTCHAR C151
ENCODING 105
SWIDTH 963 0
DWIDTH 25 0
BBX 25 40 0 -7
BITMAP
00000000
00000000
f0000000
f0000000
f0000000
f0000000
f0000000
00000000
00000000
00000000
00000000
70000000
70000000
70000000
70000000
70000000
70000000
70000000
70000000
70000000
70000000
70000000
70000000
70000000
70000000
70000000
70000000
70000000
70000000
70000000
70000000
70000000
00000000
00000000
00000000
00000000
00000000
00000000
00000000
00000000
ENDCHAR
STARTCHAR C152
ENCODING 106
SWIDTH 963 0
DWIDTH 25 0
BBX 25 40 0 -7
BITMAP
00000000
00000000
00000000
07800000
07800000
07800000
07800000
07800000
00000000
00000000
00000000
00000000
00000000
03800000
03800000
03800000
03800000
03800000
03800000
03800000
03800000
03800000
03800000
03800000
03800000
03800000
03800000
03800000
03800000
03800000
03800000
03800000
03800000
03800000
03800000
03800000
03800000
ff000000
fe000000
fc000000
ENDCHAR
STARTCHAR C153
ENCODING 107
SWIDTH 963 0
DWIDTH 25 0
BBX 25 40 0 -7
BITMAP
00000000
00000000
00000000
f0000000
f0000000
f0000000
f0000000
f0000000
f0000000
f0000000
f0000000
f0000000
f01f0000
f03e0000
f07c0000
f0f80000
f1f00000
f3e00000
f7c00000
ffc00000
ffe00000
fff00000
fff80000
f87c0000
f03e0000
f01f0000
f00f8000
f0078000
f003e000
f001f000
f000f000
f0007000
00000000
00000000
00000000
00000000
00000000
00000000
00000000
00000000
ENDCHAR
STARTCHAR C154
ENCODING 108
SWIDTH 963 0
DWIDTH 25 0
BBX 25 40 0 -7
BITMAP
00000000
00000000
f0000000
f0000000
f0000000
f0000000
f0000000
f0000000
f0000000
f0000000
f0000000
f0000000
f0000000
f0000000
f0000000
f0000000
f0000000
f0000000
f0000000
f0000000
f0000000
f0000000
f0000000
f0000000
f0000000
f0000000
f0000000
f0000000
f0000000
f0000000
f0000000
f0000000
00000000
00000000
00000000
00000000
00000000
00000000
00000000
00000000
ENDCHAR
STARTCHAR C155
ENCODING 109
SWIDTH 963 0
DWIDTH 25 0
BBX 25 40 0 -7
BITMAP
00000000
00000000
00000000
00000000
00000000
00000000
00000000
00000000
00000000
00000000
f0000000
f3c00000
f7c7c000
ffcff000
ffeff000
f0f0f000
f0f0f000
f0f0f000
f0f0f000
f0f0f000
f0f0f000
f0f0f000
f0f0f000
f0f0f000
f0f0f000
f0f0f000
f0f0f000
f0f0f000
f0f0f000
f0f0f000
f0f0f000
f0f0f000
00000000
00000000
00000000
00000000
00000000
00000000
00000000
00000000
ENDCHAR
STARTCHAR C156
ENCODING 110
SWIDTH 963 0
DWIDTH 25 0
BBX 25 40 0 -7
BITMAP
00000000
00000000
00000000
00000000
00000000
00000000
00000000
00000000
00000000
00000000
00000000
f0000000
f3ff8000
f7ffc000
ffffe000
fc01f000
f800f000
f000f000
f000f000
f000f000
f000f000
f000f000
f000f000
f000f000
f000f000
f000f000
f000f000
f000f000
f000f000
f000f000
f000f000
f000f000
00000000
00000000
00000000
00000000
00000000
00000000
00000000
00000000
ENDCHAR
STARTCHAR C157
ENCODING 111
SWIDTH 963 0
DWIDTH 25 0
BBX 25 40 0 -7
BITMAP
00000000
00000000
00000000
00000000
00000000
00000000
00000000
00000000
00000000
00000000
00000000
00000000
07fc0000
3fffc000
3fffc000
3803c000
7001c000
f001e000
f001e000
f001e000
f001e000
f001e000
f001e000
f001e000
f001e000
f001e000
f001e000
7001c000
3803c000
3fffc000
3fffc000
07fc0000
00000000
00000000
00000000
00000000
00000000
00000000
00000000
00000000
ENDCHAR
STARTCHAR C160
ENCODING 112
SWIDTH 963 0
DWIDTH 25 0
BBX 25 40 0 -7
BITMAP
00000000
00000000
00000000
00000000
00000000
00000000
00000000
00000000
00000000
00000000
e0000000
e0000000
e0fe0000
e7ffc000
ffffc000
fc01c000
f800e000
f000e000
f000e000
f000e000
f000e000
f000e000
f000e000
f000e000
f000e000
f000e000
f800e000
fc01c000
fe03c000
e7ffc000
e3ffc000
e0fc0000
e0000000
e0000000
e0000000
e0000000
e0000000
e0000000
e0000000
e0000000
ENDCHAR
STARTCHAR C161
ENCODING 113
SWIDTH 963 0
DWIDTH 25 0
BBX 25 40 0 -7
BITMAP
00000000
00000000
00000000
00000000
00000000
00000000
00000000
00000000
00000000
00000000
00000000
0001c000
0fe1c000
7ffdc000
7fffc000
600fc000
e007c000
e003c000
e001c000
e001c000
e001c000
e001c000
e001c000
e001c000
e001c000
e003c000
e007c000
600fc000
7fffc000
7ffdc000
0fe1c000
0001c000
0001c000
0001c000
0001c000
0001c000
0001c000
0001c000
0001c000
0001c000
ENDCHAR
STARTCHAR C162
ENCODING 114
SWIDTH 963 0
DWIDTH 25 0
BBX 25 40 0 -7
BITMAP
00000000
00000000
00000000
00000000
00000000
00000000
00000000
00000000
00000000
00000000
00000000
e0000000
e1fc0000
e7ff0000
ffff8000
ff07c000
f803c000
f0000000
e0000000
e0000000
e0000000
e0000000
e0000000
e0000000
e0000000
e0000000
e0000000
e0000000
e0000000
e0000000
e0000000
e0000000
00000000
00000000
00000000
00000000
00000000
00000000
00000000
00000000
ENDCHAR
STARTCHAR C163
ENCODING 115
SWIDTH 963 0
DWIDTH 25 0
BBX 25 40 0 -7
BITMAP
00000000
00000000
00000000
00000000
00000000
00000000
00000000
00000000
00000000
00000000
00000000
00000000
1ffc0000
3ffe0000
7fff0000
e0038000
e0038000
e0038000
e0000000
e0000000
fffc0000
7ffe0000
3fff0000
00038000
00038000
00038000
e0038000
e0038000
e0038000
7fff0000
3ffe0000
1ffc0000
00000000
00000000
00000000
00000000
00000000
00000000
00000000
00000000
ENDCHAR
STARTCHAR C164
ENCODING 116
SWIDTH 963 0
DWIDTH 25 0
BBX 25 40 0 -7
BITMAP
00000000
00000000
00000000
07000000
07000000
07000000
07000000
07000000
07000000
07000000
07000000
fffe0000
fffe0000
fffe0000
07000000
07000000
07000000
07000000
07000000
07000000
07000000
07000000
07000000
07000000
07000000
07000000
07000000
07000000
07000000
01fe0000
00fe0000
00fe0000
00000000
00000000
00000000
00000000
00000000
00000000
00000000
00000000
ENDCHAR
STARTCHAR C165
ENCODING 117
SWIDTH 963 0
DWIDTH 25 0
BBX 25 40 0 -7
BITMAP
00000000
00000000
00000000
00000000
00000000
00000000
00000000
00000000
00000000
00000000
00000000
f000f000
f000f000
f000f000
f000f000
f000f000
f000f000
f000f000
f000f000
f000f000
f000f000
f000f000
f000f000
f000f000
f000f000
f000f000
f001f000
380ff000
3ffff000
3ffef000
07f8f000
0000f000
00000000
00000000
00000000
00000000
00000000
00000000
00000000
00000000
ENDCHAR
STARTCHAR C166
ENCODING 118
SWIDTH 963 0
DWIDTH 25 0
BBX 25 40 0 -7
BITMAP
00000000
00000000
00000000
00000000
00000000
00000000
00000000
00000000
00000000
00000000
00000000
f000f000
f000f000
f000f000
f000f000
f801f000
3801c000
3c03c000
3e07c000
1e078000
0f0f8000
0f0f0000
070e0000
070e0000
07fe0000
03fc0000
01f80000
01f80000
00f00000
00f00000
00f00000
00f00000
00000000
00000000
00000000
00000000
00000000
00000000
00000000
00000000
ENDCHAR
STARTCHAR C167
ENCODING 119
SWIDTH 963 0
DWIDTH 25 0
BBX 25 40 0 -7
BITMAP
00000000
00000000
00000000
00000000
00000000
00000000
00000000
00000000
00000000
00000000
00000000
f000f000
f000f000
f000f000
f000f000
f000f000
f000f000
f000f000
f000f000
f000f000
f000f000
f000f000
f000f000
f0f0f000
f1f8f000
f3fcf000
f70ef000
fe07f000
fc03f000
f801f000
f000f000
e0007000
00000000
00000000
00000000
00000000
00000000
00000000
00000000
00000000
ENDCHAR
STARTCHAR C170
ENCODING 120
SWIDTH 963 0
DWIDTH 25 0
BBX 25 40 0 -7
BITMAP
00000000
00000000
00000000
00000000
00000000
00000000
00000000
00000000
00000000
00000000
00000000
00000000
c0006000
e000e000
f001e000
f803e000
7c07c000
3e0f8000
1e1f0000
0ffe0000
07fc0000
03f80000
03f80000
07fc0000
0ffe0000
1f1f0000
3e0f8000
7c07c000
f803e000
f001e000
e000e000
c0006000
00000000
00000000
00000000
00000000
00000000
00000000
00000000
00000000
ENDCHAR
STARTCHAR C171
ENCODING 121
SWIDTH 963 0
DWIDTH 25 0
BBX 25 40 0 -7
BITMAP
00000000
00000000
00000000
00000000
00000000
00000000
00000000
00000000
00000000
00000000
00000000
f000f000
f000f000
f000f000
f000f000
f000f000
f000f000
f000f000
f000f000
f000f000
f000f000
f000f000
f000f000
f000f000
f000f000
f000f000
f001f000
7007f000
3ffff000
3ffef000
3ff8f000
03e0f000
0000f000
0000f000
0000f000
3801c000
3fffc000
3fffc000
1fffc000
0ffe0000
ENDCHAR
STARTCHAR C172
ENCODING 122
SWIDTH 963 0
DWIDTH 25 0
BBX 25 40 0 -7
BITMAP
00000000
00000000
00000000
00000000
00000000
00000000
00000000
00000000
00000000
00000000
00000000
fffff000
fffff000
fffff000
0003e000
0003c000
00078000
000f0000
001e0000
003c0000
00780000
00f00000
01e00000
03c00000
07800000
0f000000
1e000000
3c000000
7c000000
fffff000
fffff000
fffff000
00000000
00000000
00000000
00000000
00000000
00000000
00000000
00000000
ENDCHAR
STARTCHAR C173
ENCODING 123
SWIDTH 963 0
DWIDTH 25 0
BBX 25 40 0 -7
BITMAP
07800000
0f000000
1c000000
38000000
38000000
38000000
38000000
3c000000
3c000000
3c000000
3c000000
3c000000
3c000000
78000000
f8000000
f8000000
f8000000
f8000000
78000000
3c000000
3c000000
3c000000
3c000000
3c000000
3c000000
38000000
38000000
38000000
38000000
1c000000
0f000000
07800000
00000000
00000000
00000000
00000000
00000000
00000000
00000000
00000000
ENDCHAR
STARTCHAR C174
ENCODING 124
SWIDTH 963 0
DWIDTH 25 0
BBX 25 40 0 -7
BITMAP
f0000000
f0000000
f0000000
f0000000
f0000000
f0000000
f0000000
f0000000
f0000000
f0000000
f0000000
f0000000
f0000000
f0000000
f0000000
f0000000
f0000000
f0000000
f0000000
f0000000
f0000000
f0000000
f0000000
f0000000
f0000000
f0000000
f0000000
f0000000
f0000000
f0000000
f0000000
f0000000
f0000000
f0000000
f0000000
f0000000
f0000000
f0000000
f0000000
f0000000
ENDCHAR
STARTCHAR C175
ENCODING 125
SWIDTH 963 0
DWIDTH 25 0
BBX 25 40 0 -7
BITMAP
f0000000
78000000
1c000000
1e000000
0e000000
0e000000
1c000000
1c000000
1c000000
1c000000
1c000000
1c000000
1c000000
0e000000
0f000000
0f000000
0f000000
0f000000
0e000000
1c000000
1c000000
1c000000
1c000000
1c000000
1c000000
1c000000
0e000000
0e000000
1e000000
1c000000
78000000
f0000000
00000000
00000000
00000000
00000000
00000000
00000000
00000000
00000000
ENDCHAR
STARTCHAR C176
ENCODING 126
SWIDTH 963 0
DWIDTH 25 0
BBX 25 40 0 -7
BITMAP
00000000
00000000
00000000
00000000
00000000
00000000
00000000
00000000
00000000
00000000
00000000
00000000
00000000
00000000
00000000
00000000
0f800800
1fc00800
3fe00800
7ff01800
7ff83800
71fc7000
e0fff000
c07ff000
803fe000
801fc000
800f8000
00000000
00000000
00000000
00000000
00000000
00000000
00000000
00000000
00000000
00000000
00000000
00000000
00000000
ENDCHAR
STARTCHAR C177
ENCODING 127
SWIDTH 963 0
DWIDTH 25 0
BBX 25 40 0 -7
BITMAP
0001f800
0003fc00
0007fe00
000f0e00
000f0e00
000f0e00
000f0000
001e0000
001e0000
001e0000
001e0000
003c0000
003c0000
003c0000
00380000
00380000
00380000
00380000
00380000
00380000
00780000
00780000
00700000
00700000
00f00000
00f00000
00f00000
00f00000
00e00000
00e00000
00e00000
00e00000
f1c00000
f1c00000
f1c00000
f1c00000
71c00000
3fc00000
1f800000
0f000000
ENDCHAR
ENDFONT
